<?xml version="1.0" encoding="utf-8"?>
<!-- Generator: Adobe Illustrator 22.0.1, SVG Export Plug-In . SVG Version: 6.00 Build 0)  -->
<svg version="1.1" id="Layer_1" xmlns="http://www.w3.org/2000/svg" xmlns:xlink="http://www.w3.org/1999/xlink" x="0px" y="0px"
	 viewBox="0 0 770 632" style="enable-background:new 0 0 770 632;" xml:space="preserve">
<style type="text/css">
	.st0{opacity:5.000000e-02;}
	.st1{fill:url(#SVGID_1_);}
	.st2{fill:url(#SVGID_2_);}
	.st3{opacity:0.25;fill:#A0FCE5;enable-background:new    ;}
	.st4{opacity:0.5;fill:#A0FCE5;enable-background:new    ;}
	.st5{fill:url(#SVGID_3_);fill-opacity:0.5;}
	.st6{fill:url(#SVGID_4_);}
	.st7{fill:url(#SVGID_5_);}
	.st8{fill:#78FBFB;fill-opacity:0.75;}
	.st9{fill:#78FBFB;fill-opacity:0.5;}
	.st10{fill:#78FBFB;fill-opacity:0.25;}
	.st11{fill:url(#SVGID_6_);}
	.st12{clip-path:url(#SVGID_8_);}
	.st13{fill:url(#SVGID_9_);}
	.st14{fill:#F2F2F2;}
	.st15{fill:#E5E1E1;}
	.st16{fill:url(#SVGID_10_);}
	.st17{fill:url(#SVGID_11_);}
	.st18{fill:url(#SVGID_12_);}
	.st19{fill:url(#SVGID_13_);}
	.st20{fill:url(#SVGID_14_);}
	.st21{fill:url(#SVGID_15_);}
	.st22{fill:url(#SVGID_16_);}
	.st23{fill:#D8D6D6;}
	.st24{fill:#438EB7;}
	.st25{fill:url(#SVGID_17_);fill-opacity:0.35;}
	.st26{fill:#00FFFF;fill-opacity:0.25;}
	.st27{fill:#2284AB;}
	.st28{fill:#17566E;}
	.st29{fill:#F7FFDF;}
	.st30{fill:#AFD0B4;}
	.st31{fill:#7E9B83;}
	.st32{fill:#00FFFF;}
	.st33{fill:#C7FCFF;}
	.st34{fill:#FFFFFF;}
	.st35{opacity:0.5;fill:url(#light_3_);enable-background:new    ;}
	.st36{opacity:0.75;fill:url(#light_4_);enable-background:new    ;}
	.st37{fill:none;}
	.st38{opacity:8.000000e-02;enable-background:new    ;}
	.st39{display:none;fill:url(#SVGID_18_);}
	.st40{fill:url(#SVGID_19_);}
	.st41{display:none;fill:url(#SVGID_20_);}
	.st42{display:none;fill:url(#SVGID_21_);}
	.st43{fill:#D8F0F1;}
	.st44{opacity:6.000000e-02;enable-background:new    ;}
	.st45{fill:url(#SVGID_22_);}
	.st46{fill:url(#SVGID_23_);}

	.st47{fill:none;stroke:#000000;stroke-miterlimit:10;}
</style>
<g id="phone">
	<g class="st0">
		<path d="M711.3,322.6l-202-116.2c-12.8-7.4-35.4-6.5-50.2,2.1L71.2,431.8c-14.9,8.6-16.5,21.5-3.6,28.9l202,116.3
			c12.8,7.4,35.4,6.5,50.2-2.1l388-223.4C722.6,343,724.2,330.1,711.3,322.6z"/>
	</g>
	
		<linearGradient id="SVGID_1_" gradientUnits="userSpaceOnUse" x1="733.746" y1="737.55" x2="50.2906" y2="737.55" gradientTransform="matrix(1 0 0 1 0 -446)">
		<stop  offset="0" style="stop-color:#175488"/>
		<stop  offset="1" style="stop-color:#32CFE2"/>
	</linearGradient>
	<path class="st1" d="M719.9,225.1c0-4.8-2.8-9.2-8.7-12.7l-202-116.2c-12.8-7.4-35.4-6.5-50.2,2.1L71.2,321.6
		c-8.7,5-12.9,11.6-12.2,17.6h-0.1v17.4l0.1,0.1c-0.6,5.2,2.2,10.3,8.6,13.9l202,116.3c12.8,7.4,35.4,6.5,50.2-2.1l388-223.4
		c7.1-4.1,11.2-9.2,12.1-14.3V247c0-0.1,0.1-0.5,0.1-0.9h0.1L719.9,225.1L719.9,225.1z"/>
	
		<linearGradient id="SVGID_2_" gradientUnits="userSpaceOnUse" x1="745.601" y1="727.5" x2="43.2541" y2="727.5" gradientTransform="matrix(1 0 0 1 0 -446)">
		<stop  offset="0" style="stop-color:#366FA1"/>
		<stop  offset="1" style="stop-color:#65DCEE"/>
	</linearGradient>
	<path class="st2" d="M711.3,212.4l-202-116.2c-12.8-7.4-35.4-6.5-50.2,2.1L71.2,321.6c-14.9,8.6-16.5,21.5-3.6,28.9l202,116.3
		c12.8,7.4,35.4,6.5,50.2-2.1l388-223.4C722.6,232.8,724.2,219.9,711.3,212.4z"/>
	<path class="st3" d="M474.4,126.6c0.1,0,0.2,0,0.3-0.1l6.3-3.7l32.5,18.7l-12.3,7.1l-9.9-5.7c-0.2-0.1-0.5-0.1-0.7,0l-15.3,8.8
		L452,138.3l-0.7,1.1L475,153c0.2,0.1,0.5,0.1,0.7,0l15.3-8.7l26.2,15.1l0.7-1.1l-15.3-8.8l12.6-7.3c0.2-0.1,0.3-0.3,0.3-0.6
		s-0.1-0.5-0.3-0.6l-32.8-19l5.6-3.3c0.2-0.1,0.3-0.3,0.3-0.6s-0.1-0.5-0.3-0.6l-12-6.9l-0.7,1.1l11,6.4l-12,6.9l-23.7-13.5
		l-0.7,1.1l24.1,13.9C474.2,126.6,474.3,126.6,474.4,126.6z"/>
	<path class="st3" d="M611.8,269.5l-11.9-6.8l25.3-14.5l-0.7-1.1l-26.3,15.1c-0.2,0.1-0.3,0.3-0.3,0.6s0.1,0.5,0.3,0.6l11.9,6.8
		l-22.5,12.9l-25.1-14.5c-0.2-0.1-0.5-0.1-0.7,0l-18.9,10.9L517,264.6c-0.2-0.1-0.5-0.1-0.7,0l-32.9,18.9l0.7,1.1l32.5-18.7
		l24.9,14.3l-46.8,26.9l-9.7-5.6c-0.2-0.1-0.5-0.1-0.7,0l-29.9,17.2l0.7,1.1l10.6-6.1l11.4,6.5l-11.8,6.8c-0.2,0.1-0.3,0.3-0.3,0.6
		s0.1,0.5,0.3,0.6l14,8l-6.6,3.8c-0.2,0.1-0.3,0.3-0.3,0.6s0.1,0.5,0.3,0.6l22.4,12.9l0.7-1.1l-21.4-12.3l6.2-3.6l11.8,6.8l0.7-1.1
		L467,327.7l11.8-6.8c0.2-0.1,0.3-0.3,0.3-0.6s-0.1-0.5-0.3-0.6l-3.1-1.8l6.5-3.8l15.4,8.8l0.7-1.1l-5.1-2.9l5.2-3l14.3,8.2l0.7-1.1
		l-14.7-8.5c-0.2-0.1-0.5-0.1-0.7,0l-6.2,3.6l-9.3-5.4c-0.2-0.1-0.5-0.1-0.7,0l-7.5,4.4l-7.3-4.2l17.7-10.2l9.7,5.6
		c0.2,0.1,0.5,0.1,0.7,0l30-17.2l7.7,4.4l-15.5,9l0.7,1.1l16.5-9.5c0.2-0.1,0.3-0.3,0.3-0.6c0-0.3-0.1-0.5-0.3-0.6l-8.1-4.6
		l35.8-20.6l24.1,13.9L565,296l0.7,1.1l11.4-6.6l10.4,6l-42.2,24.3l0.7,1.1l43.2-24.9c0.2-0.1,0.3-0.3,0.3-0.6
		c0-0.3-0.1-0.5-0.3-0.6l-10.7-6.2l33.3-19.2c0.2-0.1,0.3-0.3,0.3-0.6C612.2,269.8,612,269.7,611.8,269.5z"/>
	<path class="st3" d="M444,343.9l-6.5,3.8l-6.3-3.6l5.8-3.4c0.2-0.1,0.3-0.3,0.3-0.6c0-0.3-0.1-0.5-0.3-0.6l-9.5-5.4l-0.7,1.1
		l8.5,4.9l-12.4,7.2l-9.1-5.2l-0.7,1.1l9.5,5.4c0.1,0.1,0.2,0.1,0.3,0.1c0.1,0,0.2,0,0.3-0.1l6.5-3.8l6.3,3.6l-12,6.9
		c-0.2,0.1-0.3,0.3-0.3,0.6s0.1,0.5,0.3,0.6l7.3,4.2l-4.7,2.7c-0.2,0.1-0.3,0.3-0.3,0.6c0,0.3,0.1,0.5,0.3,0.6L441,373l0.7-1.1
		l-13.4-7.7l4.4-2.5l8.3,4.8l0.7-1.1l-16-9.2l12-6.9l6.5-3.8l10.5,6l0.7-1.1l-10.8-6.2C444.5,343.8,444.2,343.8,444,343.9z"/>
	<path class="st3" d="M260.4,409.3l-12.3-7.1l10.7-6.2l-0.7-1.1l-11.7,6.7c-0.2,0.1-0.3,0.3-0.3,0.6c0,0.3,0.1,0.5,0.3,0.6l12.3,7.1
		L241.1,420l0.7,1.1l18.6-10.7c0.2-0.1,0.3-0.3,0.3-0.6C260.8,409.6,260.6,409.4,260.4,409.3z"/>
	<path class="st3" d="M163,363.2c0.1,0.1,0.2,0.1,0.3,0.1s0.2,0,0.3-0.1l12.8-7.4l-0.7-1.1l-12.5,7.2l-21-12.1
		c-0.2-0.1-0.5-0.1-0.7,0l-9.9,5.8l0.7,1.1l9.6-5.6l9.3,5.4l-8.9,5.2c-0.2,0.1-0.3,0.3-0.3,0.6c0,0.3,0.1,0.5,0.3,0.6l9.4,5.4
		l-9.8,5.6l-10.1-5.8c-0.2-0.1-0.5-0.1-0.7,0l-13.2,7.6l0.7,1.1l12.8-7.4l10.1,5.8c0.2,0.1,0.5,0.1,0.7,0L153,369l9.1,5.2L143.6,385
		l0.7,1.1l19.6-11.3c0.2-0.1,0.3-0.3,0.3-0.6s-0.1-0.5-0.3-0.6L144,362.3l8.6-5L163,363.2z"/>
	<path class="st3" d="M264.3,239l10.1-5.8l19.7,11.3l0.7-1.1l-9.3-5.4l10.8-6.2c0.2-0.1,0.3-0.3,0.3-0.6s-0.1-0.5-0.3-0.6L278,220.1
		l-0.7,1.1l17.3,10l-10.5,6l-9.4-5.4c-0.2-0.1-0.5-0.1-0.7,0l-10.1,5.8L245.4,227l-0.7,1.1l18.9,10.9
		C263.8,239.2,264.1,239.2,264.3,239z"/>
	<path class="st3" d="M361.9,350.4l-14.6-8.4l7.3-4.2l-0.7-1.1l-8.3,4.8c-0.2,0.1-0.3,0.3-0.3,0.6c0,0.3,0.1,0.5,0.3,0.6l4.3,2.5
		l-18.6,10.7l-9.2-5.3c-0.2-0.1-0.5-0.1-0.7,0L299,363.5l0.7,1.1l8.7-5l2.9,1.7l-17.1,9.9l0.7,1.1l18.1-10.4
		c0.2-0.1,0.3-0.3,0.3-0.6c0-0.3-0.1-0.5-0.3-0.6l-3.2-1.9l12-7l9.2,5.3c0.2,0.1,0.5,0.1,0.7,0l19.6-11.3l9,5.2l-10.5,6
		c-0.2,0.1-0.3,0.3-0.3,0.6s0.1,0.5,0.3,0.6l7.9,4.6l-7.5,4.3l0.7,1.1l8.5-4.9c0.2-0.1,0.3-0.3,0.3-0.6c0-0.3-0.1-0.5-0.3-0.6
		l-7.9-4.6l10.5-6c0.2-0.1,0.3-0.3,0.3-0.6S362.1,350.5,361.9,350.4z"/>
	<path class="st3" d="M317.6,202.3c0.1,0,0.2,0,0.3-0.1l8.1-4.7l12.6,7.2c0.1,0.1,0.2,0.1,0.3,0.1s0.2,0,0.3-0.1l10.3-5.9l9.4,5.4
		l0.7-1.1l-14.7-8.4l7.7-4.4c0.2-0.1,0.3-0.3,0.3-0.6s-0.1-0.5-0.3-0.6l-3.8-2.1l7.4-4.3c0.2-0.1,0.3-0.3,0.3-0.6s-0.1-0.5-0.3-0.6
		l-14.8-8.5l-0.7,1.1l13.8,8l-7.1,4.1l-3.8-2.2l-0.7,1.1l7.9,4.6l-7.7,4.4c-0.2,0.1-0.3,0.3-0.3,0.6s0.1,0.5,0.3,0.6l5,2.9l-9.3,5.4
		l-20.3-11.8l-0.7,1.1l6.7,3.9l-7.1,4.1l-4.6-2.7l-0.7,1.1l5,2.9C317.4,202.2,317.5,202.3,317.6,202.3z"/>
	<path class="st3" d="M238.5,294.9l-7.8-4.5c-0.2-0.1-0.5-0.1-0.7,0l-10.6,6.1l0.7,1.1l10.2-5.9l7.8,4.5c0.2,0.1,0.5,0.1,0.7,0
		l5.9-3.4l6.8,3.9l-25.6,14.7l0.7,1.1l26.6-15.3c0.2-0.1,0.3-0.3,0.3-0.6s-0.1-0.5-0.3-0.6l-7.2-4l15.8-9.1l-0.7-1.1L238.5,294.9z"
		/>
	<path class="st3" d="M349.5,425.6c0.2-0.1,0.3-0.3,0.3-0.6c0-0.3-0.1-0.5-0.3-0.6l-7.7-4.4l-0.7,1.1l6.7,3.8l-7.7,4.4
		c-0.2,0.1-0.3,0.3-0.3,0.6s0.1,0.5,0.3,0.6l11,6.3l0.7-1.1l-9.9-5.8L349.5,425.6z"/>
	<path class="st3" d="M296.7,433.2L271,418.5l10.1-5.8l-0.7-1.1l-11.2,6.4c-0.2,0.1-0.3,0.3-0.3,0.6s0.1,0.5,0.3,0.6l6.6,3.8
		l-9.9,5.7c-0.2,0.1-0.3,0.3-0.3,0.6c0,0.3,0.1,0.5,0.3,0.6l8.9,5.1l-13,7.5l0.7,1.1l6.7-3.8l8.1,4.7l-13,7.5l0.7,1.1l14-8
		c0.2-0.1,0.3-0.3,0.3-0.6s-0.1-0.5-0.3-0.6l-8.5-4.9l6-3.5c0.2-0.1,0.3-0.3,0.3-0.6c0-0.3-0.1-0.5-0.3-0.6l-8.9-5.1l9.6-5.6
		l19,10.9c0.1,0.1,0.2,0.1,0.3,0.1c0.1,0,0.2,0,0.3-0.1l11.2-6.4l-0.7-1.1L296.7,433.2z"/>
	<path id="line2" class="st4" d="M165.4,415.3l-1.9-1.1v-8.5l25.3-14.6l-6.9-4c-0.3-0.2-0.5-0.5-0.5-0.9c0-0.3,0.2-0.7,0.5-0.9
		l91.9-52.9c0.3-0.2,0.7-0.2,1,0l7.9,4.6l227.1-133.3c0.3-0.2,0.7-0.2,1,0l37,21.3l34.7-20l1,1.7L548.3,227c-0.3,0.2-0.7,0.2-1,0
		l-37-21.2L283.2,339.1c-0.3,0.2-0.7,0.2-1,0l-7.9-4.6l-89.9,51.7l6.9,4c0.3,0.2,0.5,0.5,0.5,0.9c0,0.3-0.2,0.7-0.5,0.9l-25.8,15
		L165.4,415.3z"/>
	<path id="line3" class="st4" d="M179.4,423.3l-1.9-1.1v-8.5l25.3-14.6l-6.9-4c-0.3-0.2-0.5-0.5-0.5-0.9c0-0.3,0.2-0.7,0.5-0.9
		l91.9-52.9c0.3-0.2,0.7-0.2,1,0l7.9,4.6l218.1-128.3c0.3-0.2,0.7-0.2,1,0l37,21.3l34.7-20l1,1.7L553.3,240c-0.3,0.2-0.7,0.2-1,0
		l-37-21.2L297.2,347.1c-0.3,0.2-0.7,0.2-1,0l-7.9-4.6l-89.9,51.7l6.9,4c0.3,0.2,0.5,0.5,0.5,0.9c0,0.3-0.2,0.7-0.5,0.9l-25.8,15
		L179.4,423.3z"/>
	<path id="line1" class="st4" d="M151.4,407.3l-1.9-1.1v-8.5l25.3-14.6l-6.9-4c-0.3-0.2-0.5-0.5-0.5-0.9c0-0.3,0.2-0.7,0.5-0.9
		l91.9-52.9c0.3-0.2,0.7-0.2,1,0l7.9,4.6l237.1-136.3c0.3-0.2,0.7-0.2,1,0l37,21.3l34.7-20l1,1.7L544.3,216c-0.3,0.2-0.7,0.2-1,0
		l-37-21.2L269.2,331.1c-0.3,0.2-0.7,0.2-1,0l-7.9-4.6l-89.9,51.7l6.9,4c0.3,0.2,0.5,0.5,0.5,0.9c0,0.3-0.2,0.7-0.5,0.9l-25.8,15
		L151.4,407.3z"/>
	
		<linearGradient id="SVGID_3_" gradientUnits="userSpaceOnUse" x1="442.1634" y1="689.7782" x2="467.2704" y2="643.4902" gradientTransform="matrix(1 0 0 1 0 -446)">
		<stop  offset="0" style="stop-color:#000000"/>
		<stop  offset="1" style="stop-color:#000000;stop-opacity:0"/>
	</linearGradient>
	<path class="st5" d="M440.5,305.4l-110-63.1c-1.9-1.1-1.9-2.9,0-4l110-63.2c1.9-1.1,5.1-1.1,7.1,0l110,63.2c1.9,1.1,1.9,2.9,0,4
		l-110,63.1C445.6,306.5,442.5,306.5,440.5,305.4z"/>
	
		<linearGradient id="SVGID_4_" gradientUnits="userSpaceOnUse" x1="231.625" y1="737.275" x2="231.625" y2="883.925" gradientTransform="matrix(1 0 0 1 0 -446)">
		<stop  offset="0" style="stop-color:#97F3FF"/>
		<stop  offset="1" style="stop-color:#63D2F5"/>
	</linearGradient>


  <rect id="circle1" width="2" height="2" fill="#00FFFF">
  </rect>
  <rect id="circle2" width="2" height="2" fill="#00FFFF">
  </rect>
  <rect id="circle3" width="2" height="2" fill="#00FFFF">
  </rect>
  <rect id="circle4" width="2" height="2" fill="#00FFFF">
  </rect>
  <rect id="circle5" width="2" height="2" fill="#00FFFF">
  </rect>
  <rect id="circle6" width="2" height="2" fill="#00FFFF">
  </rect>
  <rect id="circle7" width="2" height="2" fill="#00FFFF">
  </rect>
  <rect id="circle8" width="2" height="2" fill="#00FFFF">
  </rect>
  <rect id="circle9" width="2" height="2" fill="#00FFFF">
  </rect>


<g id="lines">
	<path id="ca" class="st37" d="M554.8,207.7 544.1,213.9 506.1,192.6 268.6,329 260.7,324.4 167.3,378.2 174.7,383.1 
		149.4,397.7 149.4,406.2 	"/>
	<path id="ba" class="st37" d="M566.4,214.2 547.7,225 509.7,203.7 282.6,337 274.7,332.4 181.3,386.2 188.7,391.1 
		163.4,405.7 163.4,414.2 	"/>
	<path id="aa" class="st37" d="M579.8,222.5 552.8,237.9 514.8,216.6 296.6,345 288.7,340.4 195.3,394.2 202.7,399.1 
		177.4,413.7 177.4,422.2 	"/>
	<path id="ca2" class="st37" d="M578.4,194 544.1,213.9 506.1,192.6 268.6,329 260.7,324.4 167.3,378.2 174.7,383.1 
		149.4,397.7 149.4,406.2 	"/>
	<path id="ba2" class="st37" d="M588.6,201.4 547.7,225 509.7,203.7 282.6,337 274.7,332.4 181.3,386.2 188.7,391.1 
		163.4,405.7 163.4,414.2 	"/>
	<path id="aa2" class="st37" d="M603.9,208.9 552.8,237.9 514.8,216.6 296.6,345 288.7,340.4 195.3,394.2 202.7,399.1 
		177.4,413.7 177.4,422.2 	"/>
	<path id="ca3" class="st37" d="M598.6,182.5 544.1,213.9 506.1,192.6 268.6,329 260.7,324.4 167.3,378.2 174.7,383.1 
		149.4,397.7 149.4,406.2 	"/>
	<path id="ba3" class="st37" d="M610.3,188.9 547.7,225 509.7,203.7 282.6,337 274.7,332.4 181.3,386.2 188.7,391.1 
		163.4,405.7 163.4,414.2 	"/>
	<path id="aa3" class="st37" d="M625.2,196.8 552.8,237.9 514.8,216.6 296.6,345 288.7,340.4 195.3,394.2 202.7,399.1 
		177.4,413.7 177.4,422.2 	"/>
</g>
<animateMotion  accumulate="none" additive="replace" begin="0s;" calcMode="paced" dur="5s" fill="freeze" repeatCount="indefinite" restart="always" xlink:href="#circle1">
	<mpath  xlink:href="#aa"></mpath>
</animateMotion>
<animateMotion  accumulate="none" additive="replace" begin="0s;" calcMode="paced" dur="5s" fill="freeze" repeatCount="indefinite" restart="always" xlink:href="#circle2">
	<mpath  xlink:href="#ba"></mpath>
</animateMotion>
<animateMotion  accumulate="none" additive="replace" begin="0s;" calcMode="paced" dur="5s" fill="freeze" repeatCount="indefinite" restart="always" xlink:href="#circle3">
	<mpath  xlink:href="#ca"></mpath>
</animateMotion>
<animateMotion  accumulate="none" additive="replace" begin="0s;" calcMode="paced" dur="5s" fill="freeze" repeatCount="indefinite" restart="always" xlink:href="#circle4">
	<mpath  xlink:href="#aa2"></mpath>
</animateMotion>
<animateMotion  accumulate="none" additive="replace" begin="0s;" calcMode="paced" dur="5s" fill="freeze" repeatCount="indefinite" restart="always" xlink:href="#circle5">
	<mpath  xlink:href="#ba2"></mpath>
</animateMotion>
<animateMotion  accumulate="none" additive="replace" begin="0s;" calcMode="paced" dur="5s" fill="freeze" repeatCount="indefinite" restart="always" xlink:href="#circle6">
	<mpath  xlink:href="#ca2"></mpath>
</animateMotion>
<animateMotion  accumulate="none" additive="replace" begin="0s;" calcMode="paced" dur="5s" fill="freeze" repeatCount="indefinite" restart="always" xlink:href="#circle7">
	<mpath  xlink:href="#aa3"></mpath>
</animateMotion>
<animateMotion  accumulate="none" additive="replace" begin="0s;" calcMode="paced" dur="5s" fill="freeze" repeatCount="indefinite" restart="always" xlink:href="#circle8">
	<mpath  xlink:href="#ba3"></mpath>
</animateMotion>
<animateMotion  accumulate="none" additive="replace" begin="0s;" calcMode="paced" dur="5s" fill="freeze" repeatCount="indefinite" restart="always" xlink:href="#circle9">
	<mpath  xlink:href="#ca3"></mpath>
</animateMotion>



	<path class="st6" d="M156.7,292.4c-2.6-1.5-6.7-1.5-9.3,0c0,0-33.7,19.4-37.2,21.4s-7.6-1.7-9.9-0.3l5.2,3l7.6,4.4l201.4,115.9
		c2.6,1.5,6.7,1.5,9.3,0l37.2-21.4c2.6-1.5,2.6-3.9,0-5.4L156.7,292.4z"/>
	
		<linearGradient id="SVGID_5_" gradientUnits="userSpaceOnUse" x1="583.6" y1="588.575" x2="583.6" y2="706.3" gradientTransform="matrix(1 0 0 1 0 -446)">
		<stop  offset="0" style="stop-color:#7AECB5"/>
		<stop  offset="1" style="stop-color:#50A37B"/>
	</linearGradient>
	<path class="st7" d="M679.9,227.8c2.6,1.5,2.6,3.9,0,5.4c0,0-33.7,19.4-37.2,21.4c-3.5,2,2.9,4.4,0.6,5.7l-5.2-3l-7.6-4.4
		l-143.2-82.4c-2.6-1.5-2.6-3.9,0-5.4l37.2-21.4c2.6-1.5,6.7-1.5,9.3,0L679.9,227.8z"/>
	<path class="st8" d="M711.3,208.4l-202-116.2c-12.8-7.4-35.4-6.5-50.2,2.1L71.2,317.6c-14.9,8.6-16.5,21.5-3.6,28.9l202,116.3
		c12.8,7.4,35.4,6.5,50.2-2.1l388-223.4C722.6,228.8,724.2,215.9,711.3,208.4z M707.2,236.4L707.2,236.4l-388,223.4l0,0
		c-7.3,4.2-16.4,6.5-25.4,6.9s-17.6-1.2-23.8-4.8l0,0L68,345.6l0,0c-6.2-3.5-8.7-8.3-8.1-13c0.6-4.8,4.4-9.9,11.7-14.2l0,0
		l388-223.2l0,0c7.3-4.2,16.4-6.5,25.4-6.9s17.6,1.2,23.8,4.8l0,0l202,116.2c6.2,3.6,8.7,8.3,8.1,13
		C718.3,227.1,714.5,232.3,707.2,236.4z"/>
	<path class="st9" d="M711.3,203.4l-202-116.2c-12.8-7.4-35.4-6.5-50.2,2.1L71.2,312.6c-14.9,8.6-16.5,21.5-3.6,28.9l202,116.3
		c12.8,7.4,35.4,6.5,50.2-2.1l388-223.4C722.6,223.8,724.2,210.9,711.3,203.4z M707.2,231.4L707.2,231.4l-388,223.4l0,0
		c-7.3,4.2-16.4,6.5-25.4,6.9s-17.6-1.2-23.8-4.8l0,0L68,340.6l0,0c-6.2-3.5-8.7-8.3-8.1-13c0.6-4.8,4.4-9.9,11.7-14.2l0,0
		l388-223.2l0,0c7.3-4.2,16.4-6.5,25.4-6.9s17.6,1.2,23.8,4.8l0,0l202,116.2c6.2,3.6,8.7,8.3,8.1,13
		C718.3,222.1,714.5,227.3,707.2,231.4z"/>
	<path class="st10" d="M711.3,198.4l-202-116.2c-12.8-7.4-35.4-6.5-50.2,2.1L71.2,307.6c-14.9,8.6-16.5,21.5-3.6,28.9l202,116.3
		c12.8,7.4,35.4,6.5,50.2-2.1l388-223.4C722.6,218.8,724.2,205.9,711.3,198.4z M707.2,226.4L707.2,226.4l-388,223.4l0,0
		c-7.3,4.2-16.4,6.5-25.4,6.9s-17.6-1.2-23.8-4.8l0,0L68,335.6l0,0c-6.2-3.5-8.7-8.3-8.1-13c0.6-4.8,4.4-9.9,11.7-14.2l0,0
		l388-223.2l0,0c7.3-4.2,16.4-6.5,25.4-6.9s17.6,1.2,23.8,4.8l0,0l202,116.2c6.2,3.6,8.7,8.3,8.1,13
		C718.3,217.1,714.5,222.3,707.2,226.4z"/>
	
		<linearGradient id="SVGID_6_" gradientUnits="userSpaceOnUse" x1="440.9183" y1="635.806" x2="372.0524" y2="755.671" gradientTransform="matrix(1 0 0 1 0 -446)">
		<stop  offset="0" style="stop-color:#999999"/>
		<stop  offset="0.4931" style="stop-color:#B3B3B3"/>
		<stop  offset="1" style="stop-color:#F2F2F2"/>
	</linearGradient>
	<path class="st11" d="M524.9,239.3c0-0.7-0.5-1.5-1.5-2.1l-113.3-65.1c-2-1.1-5.2-1.1-7.3,0l-113.3,65.1c-1,0.6-1.5,1.4-1.5,2.1
		V255v3.9v1.4c0,0.7,0.5,1.5,1.5,2.1l113.3,65.1c2,1.1,5.2,1.1,7.3,0l113.3-65.1c1-0.6,1.5-1.4,1.5-2.1v-1.4V255V239.3L524.9,239.3z
		"/>
	<g>
		<g>
			<defs>
				<rect id="SVGID_7_" x="297" y="264.2" width="78" height="66"/>
			</defs>
			<clipPath id="SVGID_8_">
				<use xlink:href="#SVGID_7_"  style="overflow:visible;"/>
			</clipPath>
			<g class="st12">
				
					<linearGradient id="SVGID_9_" gradientUnits="userSpaceOnUse" x1="374.027" y1="745.2463" x2="342.485" y2="774.4833" gradientTransform="matrix(1 0 0 1 0 -446)">
					<stop  offset="0" style="stop-color:#CCC7C7"/>
					<stop  offset="1" style="stop-color:#E7E7E7"/>
				</linearGradient>
				<path class="st13" d="M375,311.3l-31.5,18.2v-6.4l16.5-23.9l15.1-8.8v20.9H375z"/>
				<path class="st14" d="M359.9,299.2l-45.5-26.1l15.1-8.7l45.5,26.1L359.9,299.2z"/>
				<path class="st15" d="M298,297l16.5-23.9l45.5,26.1l-16.5,23.9L298,297z"/>
				
					<linearGradient id="SVGID_10_" gradientUnits="userSpaceOnUse" x1="318.3" y1="726.229" x2="318.3" y2="736.406" gradientTransform="matrix(1 0 0 1 0 -446)">
					<stop  offset="0" style="stop-color:#7BDBDD"/>
					<stop  offset="1" style="stop-color:#448EB7"/>
				</linearGradient>
				<path class="st16" d="M312.7,286.5l4.4-6.3l6.8,3.9l-4.4,6.3L312.7,286.5z"/>
				
					<linearGradient id="SVGID_11_" gradientUnits="userSpaceOnUse" x1="327.3" y1="731.318" x2="327.3" y2="741.494" gradientTransform="matrix(1 0 0 1 0 -446)">
					<stop  offset="0" style="stop-color:#7BDBDD"/>
					<stop  offset="1" style="stop-color:#448EB7"/>
				</linearGradient>
				<path class="st17" d="M321.7,291.6l4.4-6.3l6.8,3.9l-4.4,6.3L321.7,291.6z"/>
				
					<linearGradient id="SVGID_12_" gradientUnits="userSpaceOnUse" x1="336.4" y1="736.4" x2="336.4" y2="746.577" gradientTransform="matrix(1 0 0 1 0 -446)">
					<stop  offset="0" style="stop-color:#7BDBDD"/>
					<stop  offset="1" style="stop-color:#448EB7"/>
				</linearGradient>
				<path class="st18" d="M330.8,296.7l4.4-6.3l6.8,3.9l-4.4,6.3L330.8,296.7z"/>
				
					<linearGradient id="SVGID_13_" gradientUnits="userSpaceOnUse" x1="345.4" y1="741.5" x2="345.4" y2="751.676" gradientTransform="matrix(1 0 0 1 0 -446)">
					<stop  offset="0" style="stop-color:#7BDBDD"/>
					<stop  offset="1" style="stop-color:#448EB7"/>
				</linearGradient>
				<path class="st19" d="M339.8,301.8l4.4-6.3l6.8,3.9l-4.4,6.3L339.8,301.8z"/>
				<linearGradient id="SVGID_14_" gradientUnits="userSpaceOnUse" x1="330.2" y1="299.6437" x2="330.2" y2="309.4142">
					<stop  offset="0" style="stop-color:#7BDBDD"/>
					<stop  offset="1" style="stop-color:#448EB7"/>
				</linearGradient>
				<path class="st20" d="M324.6,305.5l4.4-6.3l6.8,3.9l-4.4,6.3L324.6,305.5z"/>
				
					<linearGradient id="SVGID_15_" gradientUnits="userSpaceOnUse" x1="339.2" y1="1196.2212" x2="339.2" y2="1206.3982" gradientTransform="matrix(1 0 0 1 0 -892)">
					<stop  offset="0" style="stop-color:#7BDBDD"/>
					<stop  offset="1" style="stop-color:#448EB7"/>
				</linearGradient>
				<path class="st21" d="M333.6,310.6l4.4-6.3l6.8,3.9l-4.4,6.3L333.6,310.6z"/>
				
					<linearGradient id="SVGID_16_" gradientUnits="userSpaceOnUse" x1="316.75" y1="1186.0769" x2="316.75" y2="1196.2539" gradientTransform="matrix(1 0 0 1 0 -892)">
					<stop  offset="0" style="stop-color:#70DBA8"/>
					<stop  offset="1" style="stop-color:#36B478"/>
				</linearGradient>
				<path class="st22" d="M306.7,295.4l4.4-6.3l15.7,8.9l-4.4,6.3L306.7,295.4z"/>
				<path class="st23" d="M343.5,323.1v6.4L298,303.4V297L343.5,323.1z"/>
			</g>
		</g>
	</g>
	<path class="st14" d="M402.9,306.4l-113.4-65c-2-1.1-2-3,0-4.2l113.4-65.1c2-1.1,5.2-1.1,7.3,0l113.4,65.1c2,1.1,2,3,0,4.2
		l-113.4,65C408.1,307.5,404.9,307.5,402.9,306.4z"/>
	<path class="st24" d="M404.7,286.7l-63.6-36.6c21.2-11.7,42.4-23.3,63.6-35c1.5-0.8,3.8-0.8,5.2,0c20.7,12,41.4,24,62.1,35.9
		l-62,35.7C408.5,287.5,406.1,287.5,404.7,286.7z"/>
	
		<linearGradient id="SVGID_17_" gradientUnits="userSpaceOnUse" x1="389.7552" y1="724.5972" x2="414.5002" y2="683.2732" gradientTransform="matrix(1 0 0 1 0 -446)">
		<stop  offset="0" style="stop-color:#000000"/>
		<stop  offset="1" style="stop-color:#000000;stop-opacity:0"/>
	</linearGradient>
	<path class="st25" d="M404.7,286.7l-63.6-36.6c21.2-11.7,42.4-23.3,63.6-35c1.5-0.8,3.8-0.8,5.2,0c20.7,12,41.4,24,62.1,35.9
		l-62,35.7C408.5,287.5,406.1,287.5,404.7,286.7z"/>
	<path class="st26" d="M404.6,286.7l-81.9-47.1c-1.5-0.8-1.5-2.2,0-3l81.9-47.1c1.5-0.8,3.8-0.8,5.2,0l81.9,47.2
		c1.5,0.8,1.5,2.2,0,3l-81.9,47.1C408.4,287.5,406.1,287.5,404.6,286.7z"/>
	<path class="st27" d="M268.6,479.3l-200-115.2v-4.3l200,115.2V479.3z"/>
	<path class="st28" d="M268.6,477.5L70.3,363.3v-2.6L268.7,475v2.5H268.6z"/>
	<path class="st29" d="M189.9,622.2L0,512.9V429l189.9,109.4V622.2z"/>
	<path class="st30" d="M183.8,610.2L6.1,507.9v-75.4L183.8,534V610.2z"/>
	<path class="st29" d="M157.3,590.7L32.6,518.9v-98l124.7,71.8L157.3,590.7L157.3,590.7z"/>
	<path class="st31" d="M28.7,515.3l-0.4-0.2v-2.8L12.1,503c0.3,0.8,0.7,1.7,1,2.5s0.7,1.7,1,2.5l-0.4,0.1c-0.4-0.9-0.7-1.7-1-2.5
		c-0.3-0.7-0.5-1.4-0.8-2c-0.3-0.7-0.6-1.3-0.9-2c-0.4-0.7-0.7-1.5-1.3-2.3V498l18.5,10.6v-2.8l0.4,0.2L28.7,515.3L28.7,515.3z"/>
	<path class="st31" d="M17.9,495.6c-0.7-0.4-1.3-0.9-2-1.5c-0.7-0.6-1.4-1.3-2.2-2c-0.7-0.7-1.4-1.6-1.9-2.4s-1-1.8-1.4-2.8
		s-0.5-2-0.5-3.1c0-1.2,0.2-2.2,0.6-2.8c0.4-0.6,0.9-1,1.5-1.2s1.3-0.2,2-0.1s1.5,0.4,2.2,0.6c0.7,0.3,1.4,0.6,2,0.9
		s1.1,0.6,1.4,0.8c0.4,0.2,1,0.6,1.6,1c0.7,0.4,1.3,1,2,1.5c0.7,0.6,1.4,1.3,2.2,2c0.7,0.7,1.4,1.6,1.9,2.4c0.6,0.9,1,1.8,1.4,2.8
		s0.5,2,0.5,3.1c0,1.2-0.2,2.2-0.6,2.8c-0.4,0.6-0.9,1-1.5,1.2s-1.3,0.2-2,0.1s-1.4-0.4-2.2-0.6c-0.7-0.2-1.4-0.5-2-0.9
		c-0.6-0.3-1.1-0.6-1.4-0.8C19,496.3,18.5,496,17.9,495.6z M23.6,494.9c1.2,0.7,2.2,1.1,2.9,1.3c0.7,0.2,1.3,0.2,1.6,0
		c0.4-0.2,0.5-0.7,0.5-1.5s-0.2-1.5-0.5-2.1c-0.4-0.7-0.9-1.3-1.6-1.9c-0.7-0.7-1.7-1.3-2.9-2.1c-1.2-0.7-2.6-1.6-4.2-2.5
		c-1.7-1-3.2-1.8-4.3-2.5c-1.2-0.6-2.2-1-2.9-1.3c-0.7-0.2-1.3-0.2-1.6,0.1c-0.3,0.2-0.5,0.8-0.5,1.6c0,0.8,0.2,1.5,0.5,2.1
		c0.4,0.7,0.9,1.3,1.6,1.9s1.7,1.3,2.9,2c1.1,0.7,2.6,1.6,4.2,2.5C21,493.5,22.4,494.2,23.6,494.9z"/>
	<path class="st31" d="M17.9,479c-0.7-0.4-1.3-0.9-2-1.5c-0.7-0.6-1.4-1.3-2.2-2c-0.7-0.7-1.4-1.6-1.9-2.4c-0.6-0.8-1-1.8-1.4-2.8
		s-0.5-2-0.5-3.1c0-1.2,0.2-2.2,0.6-2.8c0.4-0.6,0.9-1,1.5-1.2s1.3-0.2,2-0.1s1.5,0.4,2.2,0.6c0.7,0.3,1.4,0.6,2,0.9
		s1.1,0.6,1.4,0.8c0.4,0.2,1,0.6,1.6,1c0.7,0.4,1.3,1,2,1.5c0.7,0.6,1.4,1.3,2.2,2c0.7,0.7,1.4,1.6,1.9,2.4c0.6,0.9,1,1.8,1.4,2.8
		s0.5,2,0.5,3.1c0,1.2-0.2,2.2-0.6,2.8c-0.4,0.6-0.9,1-1.5,1.2s-1.3,0.2-2,0.1s-1.4-0.4-2.2-0.6c-0.7-0.2-1.4-0.5-2-0.9
		c-0.6-0.3-1.1-0.6-1.4-0.8C19,479.7,18.5,479.4,17.9,479z M23.6,478.3c1.2,0.7,2.2,1.1,2.9,1.3c0.7,0.2,1.3,0.2,1.6,0
		c0.4-0.2,0.5-0.7,0.5-1.5s-0.2-1.5-0.5-2.1c-0.4-0.7-0.9-1.3-1.6-1.9c-0.7-0.7-1.7-1.3-2.9-2.1c-1.2-0.7-2.6-1.6-4.2-2.5
		c-1.7-1-3.2-1.8-4.3-2.5c-1.2-0.6-2.2-1-2.9-1.3c-0.7-0.2-1.3-0.2-1.6,0.1c-0.3,0.2-0.5,0.8-0.5,1.6c0,0.8,0.2,1.5,0.5,2.1
		c0.4,0.7,0.9,1.3,1.6,1.9c0.7,0.7,1.7,1.3,2.9,2c1.1,0.7,2.6,1.6,4.2,2.5C21,476.8,22.4,477.6,23.6,478.3z"/>
	<path class="st31" d="M179.7,602.3l-0.4-0.2v-2.8l-16.2-9.3c0.3,0.8,0.7,1.7,1,2.5s0.7,1.7,1,2.5l-0.4,0.1c-0.4-0.9-0.7-1.7-1-2.5
		c-0.3-0.7-0.5-1.4-0.8-2c-0.3-0.7-0.6-1.3-0.9-2c-0.4-0.7-0.7-1.5-1.3-2.3v-1.2l18.5,10.6V593l0.4,0.2L179.7,602.3L179.7,602.3z"/>
	<path class="st31" d="M168.9,582.6c-0.7-0.4-1.3-0.9-2-1.5s-1.4-1.3-2.2-2c-0.7-0.7-1.4-1.6-1.9-2.4c-0.6-0.8-1-1.8-1.4-2.8
		s-0.5-2-0.5-3.1c0-1.2,0.2-2.2,0.6-2.8c0.4-0.6,0.9-1,1.5-1.2s1.3-0.2,2-0.1c0.7,0.1,1.5,0.4,2.2,0.6c0.7,0.3,1.4,0.6,2,0.9
		c0.6,0.3,1.1,0.6,1.4,0.8c0.4,0.2,1,0.6,1.6,1c0.7,0.4,1.3,1,2,1.5c0.7,0.6,1.4,1.3,2.2,2c0.7,0.7,1.4,1.6,1.9,2.4
		c0.6,0.9,1,1.8,1.4,2.8s0.5,2,0.5,3.1c0,1.2-0.2,2.2-0.6,2.8c-0.4,0.6-0.9,1-1.5,1.2s-1.3,0.2-2,0.1c-0.7-0.1-1.4-0.4-2.2-0.6
		c-0.7-0.2-1.4-0.5-2-0.9c-0.6-0.3-1.1-0.6-1.4-0.8C170.1,583.3,169.5,583,168.9,582.6z M174.7,581.9c1.2,0.7,2.2,1.1,2.9,1.3
		s1.3,0.2,1.6,0c0.4-0.2,0.5-0.7,0.5-1.5s-0.2-1.5-0.5-2.1c-0.4-0.7-0.9-1.3-1.6-1.9c-0.7-0.7-1.7-1.3-2.9-2.1
		c-1.2-0.7-2.6-1.6-4.2-2.5c-1.7-1-3.2-1.8-4.3-2.5c-1.2-0.6-2.2-1-2.9-1.3c-0.7-0.2-1.3-0.2-1.6,0.1c-0.3,0.2-0.5,0.8-0.5,1.6
		s0.2,1.5,0.5,2.1c0.4,0.7,0.9,1.3,1.6,1.9c0.7,0.7,1.7,1.3,2.9,2c1.1,0.7,2.6,1.6,4.2,2.5C172.1,580.5,173.5,581.2,174.7,581.9z"/>
	<path class="st31" d="M168.9,566c-0.7-0.4-1.3-0.9-2-1.5s-1.4-1.3-2.2-2c-0.7-0.7-1.4-1.6-1.9-2.4c-0.6-0.8-1-1.8-1.4-2.8
		s-0.5-2-0.5-3.1c0-1.2,0.2-2.2,0.6-2.8c0.4-0.6,0.9-1,1.5-1.2s1.3-0.2,2-0.1c0.7,0.1,1.5,0.4,2.2,0.6c0.7,0.3,1.4,0.6,2,0.9
		c0.6,0.3,1.1,0.6,1.4,0.8c0.4,0.2,1,0.6,1.6,1c0.7,0.4,1.3,1,2,1.5c0.7,0.6,1.4,1.3,2.2,2c0.7,0.7,1.4,1.6,1.9,2.4
		c0.6,0.9,1,1.8,1.4,2.8s0.5,2,0.5,3.1c0,1.2-0.2,2.2-0.6,2.8c-0.4,0.6-0.9,1-1.5,1.2s-1.3,0.2-2,0.1c-0.7-0.1-1.4-0.4-2.2-0.6
		c-0.7-0.2-1.4-0.5-2-0.9c-0.6-0.3-1.1-0.6-1.4-0.8C170.1,566.7,169.5,566.4,168.9,566z M174.7,565.3c1.2,0.7,2.2,1.1,2.9,1.3
		s1.3,0.2,1.6,0c0.4-0.2,0.5-0.7,0.5-1.5s-0.2-1.5-0.5-2.1c-0.4-0.7-0.9-1.3-1.6-1.9c-0.7-0.7-1.7-1.3-2.9-2.1
		c-1.2-0.7-2.6-1.6-4.2-2.5c-1.7-1-3.2-1.8-4.3-2.5c-1.2-0.6-2.2-1-2.9-1.3c-0.7-0.2-1.3-0.2-1.6,0.1c-0.3,0.2-0.5,0.8-0.5,1.6
		s0.2,1.5,0.5,2.1c0.4,0.7,0.9,1.3,1.6,1.9c0.7,0.7,1.7,1.3,2.9,2c1.1,0.7,2.6,1.6,4.2,2.5C172.1,563.8,173.5,564.6,174.7,565.3z"/>
	<path class="st29" d="M19.3,396.3l55.3-31.8l189.9,109.4l-55.4,31.9L19.3,396.3z"/>
	<path class="st30" d="M23.9,400.8L80.6,368l177.7,102.3l-56.9,33L23.9,400.8z"/>
	<path class="st29" d="M51.7,415.1l54.9-31.6l124.7,71.8l-54.8,31.5L51.7,415.1z"/>
	<path class="st30" d="M128.2,396c-11.4,8.8-18.8,18.2-21.6,26.8c-3.4,10.5-0.1,20,10.8,26.3s27.4,8.2,45.6,6.2
		c15.1-1.6,31.4-5.8,46.7-12.4L128.2,396z"/>
	<path class="st29" d="M209.3,505.6c0,0-19.4,11.1-19.4,33.7L0,429.9c0-22.5,19.4-33.7,19.4-33.7L209.3,505.6z"/>
	<path class="st30" d="M25.9,399.7c0,0-19.8,11.3-19.8,33.8l26.5,15.8C32.6,426.8,52,415,52,415L25.9,399.7z"/>
	<path class="st30" d="M203.3,502.2c0,0-19.5,11.6-19.5,34.2l-26.5-15c0-22.6,19.3-34.6,19.3-34.6L203.3,502.2z"/>
</g>
<g id="elips_9_">
	<circle id="e10" class="st32" cx="358.4" cy="130.5" r="1"/>
</g>
<animate  accumulate="none" additive="replace" attributeName="cy" begin="0s" calcMode="linear" dur="8s" fill="freeze" from="130.5" keyTimes="0; 0.2; 0.5; 0.7; 1" repeatCount="indefinite" restart="always" to="130.5" values="130.5; 120; 130.5; 120; 130.5" xlink:href="#e10">
	</animate>
<g id="elips_8_">
	<circle id="e9" class="st32" cx="422.4" cy="51.5" r="1"/>
</g>
<animate  accumulate="none" additive="replace" attributeName="cy" begin="0s" calcMode="linear" dur="8s" fill="freeze" from="51.5" keyTimes="0; 0.2; 0.5; 0.7; 1" repeatCount="indefinite" restart="always" to="51.5" values="51.5; 60; 51.5; 60; 51.5" xlink:href="#e9">
	</animate>
<g id="elips_7_">
	<circle id="e8" class="st32" cx="346.4" cy="86.5" r="1"/>
</g>
<animate  accumulate="none" additive="replace" attributeName="cy" begin="0s" calcMode="linear" dur="9s" fill="freeze" from="86.5" keyTimes="0; 0.2; 0.5; 0.7; 1" repeatCount="indefinite" restart="always" to="86.5" values="86.5; 76; 86.5; 76; 86.5" xlink:href="#e8">
	</animate>
<g id="elips_6_">
	<circle id="e7" class="st32" cx="334.4" cy="161.5" r="1"/>
</g>
<animate  accumulate="none" additive="replace" attributeName="cy" begin="0s" calcMode="linear" dur="7s" fill="freeze" from="161.5" keyTimes="0; 0.2; 0.5; 0.7; 1" repeatCount="indefinite" restart="always" to="161.5" values="161.5; 171; 161.5; 171; 161.5" xlink:href="#e7">
	</animate>
<g id="elips_5_">
	<circle id="e6" class="st33" cx="382.4" cy="231.5" r="1"/>
</g>
<animate  accumulate="none" additive="replace" attributeName="cy" begin="0s" calcMode="linear" dur="9s" fill="freeze" from="231.5" keyTimes="0; 0.2; 0.5; 0.7; 1" repeatCount="indefinite" restart="always" to="231.5" values="231.5; 240; 231.5; 240; 231.55" xlink:href="#e6">
	</animate>
<g id="elips_4_">
	<circle id="e5" class="st33" cx="414.4" cy="210.5" r="1"/>
</g>
<animate  accumulate="none" additive="replace" attributeName="cy" begin="0s" calcMode="linear" dur="8s" fill="freeze" from="210.5" keyTimes="0; 0.2; 0.5; 0.7; 1" repeatCount="indefinite" restart="always" to="210.5" values="210.5; 220; 210.5; 220; 210.5" xlink:href="#e5">
	</animate>
<g id="elips_3_">
	<circle id="e4" class="st32" cx="478.4" cy="122.5" r="1"/>
</g>
<animate  accumulate="none" additive="replace" attributeName="cy" begin="0s" calcMode="linear" dur="7.5s" fill="freeze" from="122.5" keyTimes="0; 0.2; 0.5; 0.7; 1" repeatCount="indefinite" restart="always" to="122.5" values="122.5; 140; 122.5; 140; 122.5" xlink:href="#e4">
	</animate>
<g id="elips_2_">
	<circle id="e3" class="st32" cx="438.4" cy="130.5" r="1"/>
</g>
<animate  accumulate="none" additive="replace" attributeName="cy" begin="0s" calcMode="linear" dur="10s" fill="freeze" from="130.5" keyTimes="0; 0.2; 0.5; 0.7; 1" repeatCount="indefinite" restart="always" to="130.5" values="130.5; 120; 130.5; 120; 130.5" xlink:href="#e3">
	</animate>
<g id="elips_1_">
	<circle id="e2" class="st32" cx="406.4" cy="122.5" r="1"/>
</g>
<animate  accumulate="none" additive="replace" attributeName="cy" begin="0s" calcMode="linear" dur="9s" fill="freeze" from="122.5" keyTimes="0; 0.2; 0.5; 0.7; 1" repeatCount="indefinite" restart="always" to="122.5" values="122.5; 130; 122.5; 130; 122.5" xlink:href="#e2">
	</animate>
<g id="elips">
	<circle id="e1" class="st32" cx="374.4" cy="106.5" r="1"/>
</g>
<animate  accumulate="none" additive="replace" attributeName="cy" begin="0s" calcMode="linear" dur="4s" fill="freeze" from="106.5" keyTimes="0; 0.2; 0.5; 0.7; 1" repeatCount="indefinite" restart="always" to="106.5" values="106.5; 116; 106.5; 116; 106.5" xlink:href="#e1">
	</animate>
<g id="logo_1_">
	<path id="logo" class="st34" d="M398.4,110.8c-1.9-1.1-3.4-0.2-3.4,2v2c0,1.1,0.7,2.4,1.7,3l3.5,2c0.9,0.6,1.7,0.1,1.7-1v-2
		C401.9,114.6,400.3,111.8,398.4,110.8z M381,124.8c0-6.7,4.7-9.3,10.4-6l3.2,2c1.3,0.8,2.5,1.8,3.5,3.1c1.1-0.1,2.2,0.2,3.5,0.9
		l6.9,4c1.3,0.8,2.5,1.8,3.5,3.1c1.1-0.1,2.2,0.2,3.5,0.9l6.9,4c3.8,2.2,6.9,7.6,6.9,12v14c0,1.1-0.7,1.6-1.7,1l-3.5-2
		c-0.9-0.6-1.7-1.9-1.7-3v-12c0-1.1-0.7-2.4-1.7-3l-3.5-2c-0.9-0.6-1.7-0.1-1.7,1v12c0,1.1-0.7,1.6-1.7,1l-3.5-2
		c-0.9-0.6-1.7-1.9-1.7-3v-12c0-1.1-0.7-2.4-1.7-3l-3.5-2c-0.9-0.6-1.7-0.1-1.7,1v6c1.9,1.1,3.5,3.8,3.5,6s-1.6,3.1-3.5,2l-1.7-1
		l-1.7-1l-1.7-1l-5.2-3C385.7,139.4,381,131.4,381,124.8z M394.5,135.8c0.3-0.2,0.4-0.6,0.4-1.1v-4c0-1.1-0.7-2.4-1.7-3l-1.7-1
		c-1-0.6-1.9-0.6-2.6-0.2c-0.6,0.4-0.9,1.1-0.9,2.2c0,2.2,1.6,4.9,3.5,6l1.7,1C393.7,136,394.2,136,394.5,135.8z"/>
</g>
<g id="light_2_">
	
		<linearGradient id="light_3_" gradientUnits="userSpaceOnUse" x1="407.4121" y1="510.16" x2="407.3771" y2="733.349" gradientTransform="matrix(1 0 0 1 0 -446)">
		<stop  offset="0" style="stop-color:#00FFFF;stop-opacity:0"/>
		<stop  offset="0.4479" style="stop-color:#00FFFF;stop-opacity:0.35"/>
	</linearGradient>
	<path id="light" class="st35" d="M492.9,44.3H321.8v193.8c0,0.6,0.3,1.1,1.1,1.5l81.9,47.1c1.5,0.8,3.8,0.8,5.2,0l81.9-47.1
		c0.7-0.4,1.1-1,1.1-1.5V44.3H492.9z"/>
	
		<linearGradient id="light_4_" gradientUnits="userSpaceOnUse" x1="406.6" y1="456.8999" x2="406.6" y2="733.349" gradientTransform="matrix(1 0 0 1 0 -446)">
		<stop  offset="0" style="stop-color:#00FFFF;stop-opacity:0"/>
		<stop  offset="0.4479" style="stop-color:#00FFFF;stop-opacity:0.35"/>
	</linearGradient>
	<path id="light_1_" class="st36" d="M472,32.4L406.6,0l-65.3,31.6l-0.1,218.5c0,0,37.4,21.5,63.6,36.6c1.5,0.8,3.8,0.8,5.2,0
		c26.2-15.1,62-35.8,62-35.8V32.4z"/>
</g>
<animateMotion  accumulate="none" additive="replace" begin="0s" calcMode="paced" dur="5s" fill="freeze" path="M0,-30 0,10z" repeatCount="indefinite" restart="always" xlink:href="#logo">
	</animateMotion>


<g id="robot">
	<ellipse class="st38" cx="305.3" cy="325" rx="9.2" ry="5.7"/>
	
		<linearGradient id="SVGID_18_" gradientUnits="userSpaceOnUse" x1="299.427" y1="740.5514" x2="297.573" y2="745.8784" gradientTransform="matrix(1 0 0 1 0 -446)">
		<stop  offset="0" style="stop-color:#FEFFFF"/>
		<stop  offset="1" style="stop-color:#BEDFDE"/>
	</linearGradient>
	<path class="st39" d="M301.8,292.7c0.6,1,0.2,2.3-0.7,2.9l-2.8,1.7l2.8,1.7c1,0.6,1.3,1.9,0.7,2.9c-0.6,1-1.8,1.3-2.7,0.7l-3.4-2.1
		l0,0c-1-0.6-2-1.7-2-3.2s0.9-2.6,2-3.2l0,0l3.4-2.1C300.1,291.3,301.3,291.7,301.8,292.7z"/>
	
		<linearGradient id="SVGID_19_" gradientUnits="userSpaceOnUse" x1="295.5749" y1="759.0609" x2="315.7579" y2="758.9188" gradientTransform="matrix(1 0 0 1 0 -446)">
		<stop  offset="0" style="stop-color:#FFFFFF"/>
		<stop  offset="0.4792" style="stop-color:#E2FAF9"/>
		<stop  offset="0.5417" style="stop-color:#B7E1DF"/>
		<stop  offset="1" style="stop-color:#A5CECC"/>
	</linearGradient>
	<path class="st40" d="M295.6,300.7h20.2v15.9c0,2-0.7,3.9-2.1,5.3l0,0c-4.3,4.6-11.7,4.6-16,0l0,0c-1.3-1.4-2.1-3.3-2.1-5.3V300.7z
		"/>
	
		<linearGradient id="SVGID_20_" gradientUnits="userSpaceOnUse" x1="318.1984" y1="753.4919" x2="317.7764" y2="757.1308" gradientTransform="matrix(1 0 0 1 0 -446)">
		<stop  offset="0" style="stop-color:#FEFFFF"/>
		<stop  offset="1" style="stop-color:#BEDFDE"/>
	</linearGradient>
	<path class="st41" d="M310.7,307c0.6-1,1.8-1.3,2.7-0.7l3.4,2.1c0.3,0.2,0.7,0.3,1.3,0.3c0.6,0,1.1-0.1,1.3-0.3l0,0l3.4-2.1
		c0.9-0.6,2.2-0.3,2.7,0.7c0.6,1,0.3,2.3-0.7,2.9l-3.4,2.1c-1,0.6-2.3,0.9-3.4,0.9s-2.4-0.3-3.4-0.9l-3.4-2.1
		C310.5,309.3,310.2,308,310.7,307z"/>
	
		<linearGradient id="SVGID_21_" gradientUnits="userSpaceOnUse" x1="316.3704" y1="750.2053" x2="321.1034" y2="760.8403" gradientTransform="matrix(1 0 0 1 0 -446)">
		<stop  offset="0" style="stop-color:#FFFFFF;stop-opacity:0"/>
		<stop  offset="1" style="stop-color:#7FAFAB"/>
	</linearGradient>
	<path class="st42" d="M310.7,307c0.6-1,1.8-1.3,2.7-0.7l3.4,2.1c0.3,0.2,0.7,0.3,1.3,0.3c0.6,0,1.1-0.1,1.3-0.3l0,0l3.4-2.1
		c0.9-0.6,2.2-0.3,2.7,0.7c0.6,1,0.3,2.3-0.7,2.9l-3.4,2.1c-1,0.6-2.3,0.9-3.4,0.9s-2.4-0.3-3.4-0.9l-3.4-2.1
		C310.5,309.3,310.2,308,310.7,307z"/>
	<path class="st43" d="M306.2,307.1c-0.3,0.2-0.7,0.2-1,0l-9.1-5.6c-0.6-0.4-0.6-1.3,0-1.7l9.1-5.6c0.3-0.2,0.7-0.2,1,0l9.1,5.6
		c0.6,0.4,0.6,1.3,0,1.7L306.2,307.1z"/>
	<ellipse class="st44" cx="305.7" cy="301" rx="6.2" ry="2.9"/>
	
		<radialGradient id="SVGID_22_" cx="302.3411" cy="347.4941" r="17.0856" gradientTransform="matrix(1 0 0 -1 0 634)" gradientUnits="userSpaceOnUse">
		<stop  offset="0" style="stop-color:#FDFFFF"/>
		<stop  offset="1" style="stop-color:#ADD6D4"/>
	</radialGradient>
	<circle class="st45" cx="305.7" cy="292.8" r="8.7">
	
		<animate  accumulate="none" additive="replace" attributeName="d" calcMode="linear" dur="8s" fill="remove" repeatCount="indefinite" restart="always" values="     M312.4,308.3c0,0,0,3.6,0,10;     M312.4,308.3c0,0,0,3.6,0,10;     M312.4,308.3c0,0,0,3.6,0,10;     M312.4,308.3c0,0,0,3.6,0,10;     M312.4,308.3c0,0,0,3.6,0,10;     M312.4,308.3c0,0,0,3.6,0,10;     M312.4,308.2c0,0,2.8,5.6,7.1,2.9;     M312.4,308.3c0,0,3.4,4.9,9.8-0.9;     M312.4,308.2c0,0,2.8,5.6,7.1,2.9;     M312.4,308.3c0,0,0,3.6,0,10;     M312.4,308.3c0,0,0,3.6,0,10;     M312.4,308.3c0,0,0,3.6,0,10;     M312.4,308.3c0,0,0,3.6,0,10;     M312.4,308.3c0,0,0,3.6,0,10;     M312.4,308.3c0,0,0,3.6,0,10;     M312.4,308.2c0,0,2.8,5.6,7.1,2.9;     M312.4,308.3c0,0,3.4,4.9,9.8-0.9;     M312.4,308.2c0,0,2.8,5.6,7.1,2.9;     M312.4,308.3c0,0,0,3.6,0,10;     M312.4,308.3c0,0,0,3.6,0,10;     M312.4,308.3c0,0,0,3.6,0,10;     M312.4,308.2c0,0,2.8,5.6,7.1,2.9;     M312.4,308.3c0,0,3.4,4.9,9.8-0.9;     M312.4,308.2c0,0,2.8,5.6,7.1,2.9;     M312.4,308.3c0,0,0,3.6,0,10;     M312.4,308.3c0,0,0,3.6,0,10;     M312.4,308.3c0,0,0,3.6,0,10;     M312.4,308.3c0,0,0,3.6,0,10;     M312.4,308.3c0,0,0,3.6,0,10;     M312.4,308.2c0,0,2.8,5.6,7.1,2.9;     M312.4,308.3c0,0,3.4,4.9,9.8-0.9;     M312.4,308.2c0,0,2.8,5.6,7.1,2.9;     M312.4,308.3c0,0,0,3.6,0,10;     M312.4,308.3c0,0,0,3.6,0,10;     M312.4,308.3c0,0,0,3.6,0,10;     M312.4,308.3c0,0,0,3.6,0,10;     M312.4,308.3c0,0,0,3.6,0,10;     M312.4,308.3c0,0,0,3.6,0,10;     M312.4,308.2c0,0,2.8,5.6,7.1,2.9;     M312.4,308.3c0,0,3.4,4.9,9.8-0.9;     M312.4,308.2c0,0,2.8,5.6,7.1,2.9;     M312.4,308.3c0,0,0,3.6,0,10;     M312.4,308.3c0,0,0,3.6,0,10;     M312.4,308.3c0,0,0,3.6,0,10;     M312.4,308.3c0,0,0,3.6,0,10;     M312.4,308.3c0,0,0,3.6,0,10;     M312.4,308.3c0,0,0,3.6,0,10;">
		</animate>
	</circle>
	<g id="hand">
		<path fill="none" stroke="#D8F0F1" stroke-width="4" stroke-linecap="round" stroke-linejoin="round" stroke-miterlimit="10" d="312.4,308.3c0,0,0,3.6,0,10">
			<animate  dur="8s"
				repeatCount="indefinite"
				attributeName="d"
				values="
				M312.4,308.3c0,0,0,3.6,0,10;
				M312.4,308.3c0,0,0,3.6,0,10;
				M312.4,308.2c0,0,2.8,5.6,7.1,2.9;
				M312.4,308.3c0,0,3.4,4.9,9.8-0.9;
				M312.4,308.2c0,0,2.8,5.6,7.1,2.9;
				M312.4,308.3c0,0,0,3.6,0,10;
				M312.4,308.3c0,0,0,3.6,0,10;
				M312.4,308.3c0,0,0,3.6,0,10;
				M312.4,308.3c0,0,0,3.6,0,10;
				M312.4,308.2c0,0,2.8,5.6,7.1,2.9;
				M312.4,308.3c0,0,3.4,4.9,9.8-0.9;
				M312.4,308.2c0,0,2.8,5.6,7.1,2.9;
				M312.4,308.3c0,0,0,3.6,0,10;
				M312.4,308.3c0,0,0,3.6,0,10;
				M312.4,308.3c0,0,0,3.6,0,10;
				M312.4,308.3c0,0,0,3.6,0,10;
				M312.4,308.3c0,0,0,3.6,0,10;
				M312.4,308.3c0,0,0,3.6,0,10;
				M312.4,308.3c0,0,0,3.6,0,10;
				M312.4,308.2c0,0,2.8,5.6,7.1,2.9;
				M312.4,308.3c0,0,3.4,4.9,9.8-0.9;
				M312.4,308.2c0,0,2.8,5.6,7.1,2.9;
				M312.4,308.3c0,0,0,3.6,0,10;
				M312.4,308.3c0,0,0,3.6,0,10;
				M312.4,308.3c0,0,0,3.6,0,10;
				M312.4,308.3c0,0,0,3.6,0,10;
				M312.4,308.3c0,0,0,3.6,0,10;
				M312.4,308.3c0,0,0,3.6,0,10;
				M312.4,308.3c0,0,0,3.6,0,10;
				M312.4,308.3c0,0,0,3.6,0,10;
				M312.4,308.3c0,0,0,3.6,0,10;
				M312.4,308.3c0,0,0,3.6,0,10;
				M312.4,308.3c0,0,0,3.6,0,10;
				M312.4,308.2c0,0,2.8,5.6,7.1,2.9;
				M312.4,308.3c0,0,3.4,4.9,9.8-0.9;
				M312.4,308.2c0,0,2.8,5.6,7.1,2.9;
				M312.4,308.3c0,0,0,3.6,0,10;
				M312.4,308.3c0,0,0,3.6,0,10;
				M312.4,308.3c0,0,0,3.6,0,10;
				M312.4,308.3c0,0,0,3.6,0,10;
				M312.4,308.3c0,0,0,3.6,0,10;
				M312.4,308.3c0,0,0,3.6,0,10;
				M312.4,308.3c0,0,0,3.6,0,10;
				M312.4,308.3c0,0,0,3.6,0,10;
				M312.4,308.3c0,0,0,3.6,0,10;
				M312.4,308.3c0,0,0,3.6,0,10;"/>
		</path>
	</g>
</g>
<animateMotion 
           xlink:href="#robot"
           dur="8s"
           begin="0s"
           fill="freeze"
           repeatCount="indefinite"
           path="M20,4 -8,-10z"/>
</svg>
